<!DOCTYPE svg PUBLIC "-//W3C//DTD SVG 1.1//EN" "http://www.w3.org/Graphics/SVG/1.1/DTD/svg11.dtd">
<!-- Uploaded to: SVG Repo, www.svgrepo.com, Transformed by: SVG Repo Mixer Tools -->
<svg height="800px" width="800px" version="1.1" id="Layer_1" xmlns="http://www.w3.org/2000/svg" xmlns:xlink="http://www.w3.org/1999/xlink" viewBox="0 0 512 512" xml:space="preserve" fill="#000000">
<g id="SVGRepo_bgCarrier" stroke-width="0"/>
<g id="SVGRepo_tracerCarrier" stroke-linecap="round" stroke-linejoin="round"/>
<g id="SVGRepo_iconCarrier"> <polygon style="fill:#68aee3;" points="332.227,112.13 234.593,237.659 106.152,180.574 0,269.036 0,506.057 512,506.057 512,94.152 "/> <polygon style="fill:#3492da;" points="332.227,112.13 256,210.136 256,506.057 512,506.057 512,94.152 "/> <polygon style="fill:#ff9500;" points="286.049,28.538 207.477,129.557 91.907,78.193 0,154.783 0,211.909 99.03,129.385 221.035,183.61 309.137,70.335 512,50.049 512,5.943 "/> <polygon style="fill:#00152e;" points="352.875,324.135 236.936,280.657 132.061,370.551 0,354.041 0,506.057 512,506.057 512,165.011 "/> <polygon style="fill:#002c61;" points="352.875,324.135 256,287.806 256,506.057 512,506.057 512,165.011 "/> </g>
</svg>